<svg xmlns="http://www.w3.org/2000/svg" width="1200" height="720" viewBox="0 0 1200 720" role="img" aria-labelledby="title description">
  <title id="title">Maniflight repository preflight for Maniflight</title>
  <desc id="description">Overall readiness 100%, labeled ready. Architecture: Pass; Automation: Pass; Security: Pass; Community: Unknown.</desc>
  <style>
    :root { color-scheme: dark light; }
    .background { fill: #090611; }
    .surface { fill: #110b1c; stroke: #765990; stroke-width: 1; }
    .orbit { fill: none; stroke: #765990; stroke-width: 1.4; opacity: .62; }
    .connector { fill: none; stroke: #7650a8; stroke-width: 1.6; }
    .domain-node { fill: #110b1c; stroke: #765990; stroke-width: 1.2; }
    .product { fill: #c2a5e8; font: 700 13px ui-sans-serif, system-ui, sans-serif; letter-spacing: 1.4px; }
    .repo { fill: #f8f3ff; font: 740 34px ui-sans-serif, system-ui, sans-serif; letter-spacing: -1px; }
    .muted { fill: #c9bdd6; font: 400 15px ui-sans-serif, system-ui, sans-serif; }
    .score { fill: #f2a45b; font: 760 35px ui-sans-serif, system-ui, sans-serif; }
    .label { fill: #f8f3ff; font: 680 15px ui-sans-serif, system-ui, sans-serif; text-transform: capitalize; }
    .domain-title { fill: #f8f3ff; font: 720 17px ui-sans-serif, system-ui, sans-serif; }
    .domain-score { fill: #f2a45b; font: 720 17px ui-sans-serif, system-ui, sans-serif; }
    .domain-meta { fill: #c9bdd6; font: 400 12px ui-sans-serif, system-ui, sans-serif; }
    .state-pass { fill: #79d8ae; }
    .state-warn { fill: #f2a45b; }
    .state-fail { fill: #ff8b9d; }
    .state-unknown, .state-not-applicable { fill: #aaa0b4; }
    .footer { fill: #9f91ad; font: 400 11px ui-sans-serif, system-ui, sans-serif; }
    @media (prefers-color-scheme: light) {
      .background { fill: #f7f4fb; }
      .surface, .domain-node { fill: #fff; stroke: #9e82b7; }
      .orbit { stroke: #9e82b7; }
      .connector { stroke: #7650a8; }
      .repo, .label, .domain-title { fill: #17101f; }
      .product { fill: #613891; }
      .muted, .domain-meta { fill: #554a61; }
      .score, .domain-score { fill: #8c480c; }
      .state-pass { fill: #176b4a; }
      .state-warn { fill: #80420b; }
      .state-fail { fill: #9e2940; }
      .state-unknown, .state-not-applicable, .footer { fill: #625a69; }
    }
  </style>
  <rect class="background" width="1200" height="720" />
  <text class="product" x="64" y="54">MANIFLIGHT / REPOSITORY PREFLIGHT</text>
  <text class="repo" x="64" y="101">Maniflight</text>
  <text class="muted" x="64" y="130">Evidence-backed readiness snapshot</text>
  <g transform="translate(1018 88)">
    <text class="score" x="0" y="0" text-anchor="end">100%</text>
    <text class="label" x="0" y="28" text-anchor="end">ready</text>
  </g>
  <line x1="64" y1="158" x2="1136" y2="158" stroke="#765990" stroke-width="1" />
  <ellipse class="orbit" cx="600" cy="426" rx="382" ry="192" />
  <ellipse class="orbit" cx="600" cy="426" rx="260" ry="245" opacity=".38" />
  <path class="connector" d="M600 426 C600 350 600 294 600 236" />
  <path class="connector" d="M600 426 C725 390 825 410 956 426" />
  <path class="connector" d="M600 426 C475 462 375 442 244 426" />
  <path class="connector" d="M600 426 C600 500 600 552 600 610" />

    <g transform="translate(600 220)">
      <rect class="domain-node" x="-137" y="-47" width="274" height="94" rx="12" />
      <circle class="state state-pass" cx="-108" cy="-14" r="8" />
      <text class="domain-title" x="-88" y="-8">Architecture</text>
      <text class="domain-score" x="108" y="-8" text-anchor="end">100%</text>
      <text class="domain-meta" x="-108" y="22">5 checks · 100% confidence · Pass</text>
    </g>

    <g transform="translate(964 426)">
      <rect class="domain-node" x="-137" y="-47" width="274" height="94" rx="12" />
      <circle class="state state-pass" cx="-108" cy="-14" r="8" />
      <text class="domain-title" x="-88" y="-8">Automation</text>
      <text class="domain-score" x="108" y="-8" text-anchor="end">100%</text>
      <text class="domain-meta" x="-108" y="22">4 checks · 100% confidence · Pass</text>
    </g>

    <g transform="translate(236 426)">
      <rect class="domain-node" x="-137" y="-47" width="274" height="94" rx="12" />
      <circle class="state state-pass" cx="-108" cy="-14" r="8" />
      <text class="domain-title" x="-88" y="-8">Security</text>
      <text class="domain-score" x="108" y="-8" text-anchor="end">100%</text>
      <text class="domain-meta" x="-108" y="22">8 checks · 100% confidence · Pass</text>
    </g>

    <g transform="translate(600 626)">
      <rect class="domain-node" x="-137" y="-47" width="274" height="94" rx="12" />
      <circle class="state state-unknown" cx="-108" cy="-14" r="8" />
      <text class="domain-title" x="-88" y="-8">Community</text>
      <text class="domain-score" x="108" y="-8" text-anchor="end">100%</text>
      <text class="domain-meta" x="-108" y="22">8 checks · 92% confidence · Unknown</text>
    </g>
  <g transform="translate(600 426)">
    <circle class="surface" r="102" />
    <circle class="orbit" r="78" opacity=".5" />
    <path d="M0 -48 L11 -11 L48 0 L11 11 L0 48 L-11 11 L-48 0 L-11 -11 Z" fill="#f2a45b" />
    <text class="label" x="0" y="72" text-anchor="middle">repository core</text>
  </g>
  <text class="footer" x="64" y="690">Generated by Maniflight 0.1.0 · Reproducible timestamp omitted</text>
</svg>
